<svg xmlns="http://www.w3.org/2000/svg" xmlns:xlink="http://www.w3.org/1999/xlink" width="20" height="20" viewBox="0 0 20 20">
  <defs>
    <path id="admin-a" d="M15.4687,7.5029 C15.0937,7.5029 14.7307,7.5849 14.3997,7.7389 C13.4987,7.2209 12.4417,6.8769 11.3157,6.7229 L11.7777,4.5489 L12.8277,4.7729 C13.1127,5.5939 13.8847,6.1889 14.8007,6.1889 C15.9547,6.1889 16.8947,5.2489 16.8947,4.0949 C16.8947,2.9399 15.9547,1.9999 14.8007,1.9999 C14.1367,1.9999 13.5507,2.3159 13.1667,2.7999 L11.2147,2.3849 C10.6757,2.2739 10.1437,2.6139 10.0287,3.1549 L9.3297,6.4389 C9.3137,6.5159 9.3257,6.5899 9.3277,6.6659 C7.9607,6.7589 6.6667,7.1219 5.5987,7.7379 C5.2677,7.5839 4.9057,7.5029 4.5317,7.5029 C3.1357,7.5029 1.9997,8.6389 1.9997,10.0349 C1.9997,10.7769 2.3257,11.4699 2.8687,11.9429 C2.9027,14.8739 6.0217,17.1629 9.9967,17.1629 C13.9697,17.1629 17.0877,14.8769 17.1247,11.9479 C17.6707,11.4759 17.9997,10.7799 17.9997,10.0349 C17.9997,8.6389 16.8647,7.5029 15.4687,7.5029"/>
  </defs>
  <g fill="none" fill-rule="evenodd">
    <use fill="#ff4500" xlink:href="#admin-a"/>
  </g>
</svg>
